<svg width="64" height="64" viewBox="0 0 64 64" fill="none" xmlns="http://www.w3.org/2000/svg">
  <defs>
    <linearGradient id="logoGradient" x1="0%" y1="0%" x2="100%" y2="100%">
      <stop offset="0%" style="stop-color:#00D4FF;stop-opacity:1" />
      <stop offset="100%" style="stop-color:#7B2FF7;stop-opacity:1" />
    </linearGradient>
    <linearGradient id="accentGradient" x1="0%" y1="0%" x2="100%" y2="100%">
      <stop offset="0%" style="stop-color:#5CE1E6;stop-opacity:1" />
      <stop offset="100%" style="stop-color:#00D4FF;stop-opacity:1" />
    </linearGradient>
  </defs>
  <circle cx="32" cy="32" r="30" fill="url(#logoGradient)" opacity="0.1"/>
  <rect x="16" y="18" width="32" height="3" rx="1.5" fill="url(#logoGradient)"/>
  <circle cx="20" cy="19.5" r="2" fill="url(#accentGradient)"/>
  <circle cx="28" cy="19.5" r="2" fill="url(#accentGradient)" opacity="0.7"/>
  <circle cx="36" cy="19.5" r="2" fill="url(#accentGradient)" opacity="0.5"/>
  <rect x="16" y="30.5" width="32" height="3" rx="1.5" fill="url(#logoGradient)"/>
  <circle cx="20" cy="32" r="2" fill="url(#accentGradient)"/>
  <circle cx="28" cy="32" r="2" fill="url(#accentGradient)" opacity="0.7"/>
  <rect x="16" y="43" width="32" height="3" rx="1.5" fill="url(#logoGradient)"/>
  <circle cx="20" cy="44.5" r="2" fill="url(#accentGradient)"/>
  <circle cx="28" cy="44.5" r="2" fill="url(#accentGradient)" opacity="0.7"/>
  <circle cx="36" cy="44.5" r="2" fill="url(#accentGradient)" opacity="0.5"/>
  <circle cx="44" cy="44.5" r="2" fill="url(#accentGradient)" opacity="0.3"/>
  <circle cx="44" cy="32" r="6" fill="url(#logoGradient)"/>
  <circle cx="44" cy="32" r="4" fill="#00D4FF"/>
  <line x1="44" y1="22" x2="44" y2="26" stroke="url(#accentGradient)" stroke-width="1.5" opacity="0.6"/>
  <line x1="44" y1="38" x2="44" y2="42" stroke="url(#accentGradient)" stroke-width="1.5" opacity="0.6"/>
  <path d="M 42 32 L 43.5 33.5 L 46 30" stroke="white" stroke-width="1.5" stroke-linecap="round" stroke-linejoin="round" fill="none"/>
</svg>
